<?xml version="1.0" standalone="no"?><!DOCTYPE svg PUBLIC "-//W3C//DTD SVG 1.1//EN" "http://www.w3.org/Graphics/SVG/1.1/DTD/svg11.dtd"><svg class="icon" width="200px" height="129.29px" viewBox="0 0 1584 1024" version="1.1" xmlns="http://www.w3.org/2000/svg"><path fill="#333333" d="M453.09926 150.625429a45.918747 45.918747 0 0 0-65.204621 0L15.034412 498.689533a45.918747 45.918747 0 0 0 0 67.959746L388.813014 892.672383a45.918747 45.918747 0 1 0 60.612746-64.286246L115.137281 530.832656l336.125229-315.002606a45.918747 45.918747 0 0 0 1.83675-65.204621zM1568.006441 498.689533L1194.227839 148.78868a45.918747 45.918747 0 1 0-62.449496 67.04137L1469.740322 530.832656 1133.615093 828.386137a45.918747 45.918747 0 1 0 60.612746 64.286246l372.860227-326.941479a45.918747 45.918747 0 0 0 0-67.959746zM939.83798 1.848689a45.918747 45.918747 0 0 0-56.939247 31.224748l-275.512483 929.395442a45.918747 45.918747 0 0 0 35.816623 58.775996h12.857249a45.918747 45.918747 0 0 0 44.081998-33.061498l275.512482-929.395442a45.918747 45.918747 0 0 0-35.816622-56.939246z"  /></svg>